<svg width="345" height="350" viewBox="0 0 345 350" fill="none" xmlns="http://www.w3.org/2000/svg">
<ellipse cx="154.336" cy="153.583" rx="154.336" ry="153.583" fill="#F82B2B"/>
<path d="M310.548 314.658L220.483 287.124L280.156 225.911L310.548 314.658Z" fill="#F82B2B"/>
<ellipse cx="157.832" cy="243.546" rx="19.9787" ry="19.8813" fill="white"/>
<path d="M169.37 194.961L165.874 198.758L161.329 201.795H157.483L152.938 200.656L149.442 198.758L146.295 194.961L144.897 191.543L144.197 186.227L136.993 46.4955C136.255 43.0862 138.663 38.142 139.652 36.6231C140.642 35.1043 140.701 34.3449 141.75 33.2058L143.149 31.3073L145.596 29.4087L148.043 27.8899L150.141 26.7508L151.889 25.9914L153.637 25.6117L155.385 25.232C155.385 25.232 157.296 24.8339 158.532 24.8523C159.632 24.8686 161.329 25.232 161.329 25.232C165.244 26.447 166.69 26.926 166.923 27.0137L166.573 26.7508L169.02 28.2696L171.118 30.1681L173.565 32.4464L175.313 35.1043L178.81 43.0782L178.46 51.8114L171.118 186.227L170.768 191.543L170.419 193.062L169.37 194.961Z" fill="white"/>
<path d="M171.118 30.1681L173.565 32.4464L175.313 35.1043L178.81 43.0782L178.46 51.8114L171.118 186.227L170.768 191.543L170.419 193.062L169.37 194.961L165.874 198.758L161.329 201.795H157.483L152.938 200.656L149.442 198.758L146.295 194.961L144.897 191.543L144.197 186.227L136.993 46.4955C136.255 43.0862 138.663 38.142 139.652 36.6231C140.642 35.1043 140.701 34.3449 141.75 33.2058L143.149 31.3073L145.596 29.4087L148.043 27.8899L150.141 26.7508L151.889 25.9914L153.637 25.6117L155.385 25.232C155.385 25.232 157.296 24.8339 158.532 24.8523C159.632 24.8686 161.329 25.232 161.329 25.232C165.244 26.447 166.69 26.926 166.923 27.0137M171.118 30.1681L169.02 28.2696L166.573 26.7508L166.923 27.0137M171.118 30.1681L166.923 27.0137" stroke="white"/>
</svg>
