<svg width="512" height="512" viewBox="0 0 512 512" fill="none" xmlns="http://www.w3.org/2000/svg">
<path d="M437.02 74.9804C388.667 26.628 324.381 0 256 0C187.619 0 123.333 26.628 74.9804 74.9804C26.629 123.333 0 187.619 0 256C0 324.381 26.629 388.667 74.9804 437.02C123.333 485.372 187.619 512 256 512C324.381 512 388.667 485.372 437.02 437.02C485.371 388.667 512 324.381 512 256C512 187.619 485.371 123.333 437.02 74.9804ZM256 496.971C123.128 496.971 15.0294 388.872 15.0294 256C15.0294 123.128 123.128 15.0294 256 15.0294C388.872 15.0294 496.971 123.128 496.971 256C496.971 388.872 388.872 496.971 256 496.971Z" fill="white"/>
<path d="M416.313 192.376H392.561C388.411 192.376 385.046 195.739 385.046 199.89C385.046 204.042 388.411 207.405 392.561 207.405H408.798V304.595H312.11C307.959 304.595 304.595 307.958 304.595 312.11V408.798H207.405V312.11C207.405 307.958 204.041 304.595 199.89 304.595H103.202V207.405H199.89C204.041 207.405 207.405 204.042 207.405 199.89V103.202H304.595V199.89C304.595 204.042 307.959 207.405 312.11 207.405H356.49C360.64 207.405 364.005 204.042 364.005 199.89C364.005 195.739 360.64 192.376 356.49 192.376H319.624V95.6869C319.624 91.5358 316.26 88.1722 312.11 88.1722H199.89C195.74 88.1722 192.376 91.5358 192.376 95.6869V192.376H95.6869C91.5368 192.376 88.1722 195.739 88.1722 199.89V312.11C88.1722 316.261 91.5368 319.624 95.6869 319.624H192.376V416.313C192.376 420.464 195.74 423.828 199.89 423.828H312.11C316.26 423.828 319.624 420.464 319.624 416.313V319.624H416.313C420.463 319.624 423.828 316.261 423.828 312.11V199.89C423.828 195.739 420.463 192.376 416.313 192.376Z" fill="white"/>
</svg>
